<?xml version="1.0" encoding="UTF-8"?>
<svg width="16px" height="40px" viewBox="0 0 16 40" version="1.1" xmlns="http://www.w3.org/2000/svg" xmlns:xlink="http://www.w3.org/1999/xlink">
    <!-- Generator: Sketch 41.2 (35397) - http://www.bohemiancoding.com/sketch -->
    <title>icn_beer</title>
    <desc>Created with Sketch.</desc>
    <defs></defs>
    <g id="3.0_Shop" stroke="none" stroke-width="1" fill="none" fill-rule="evenodd">
        <g id="M_3.2b_ProductDetail_Nutrition" transform="translate(-226.000000, -989.000000)" fill="#393939">
            <g id="beer_bottle" transform="translate(226.000000, 989.000000)">
                <g id="icn_beer">
                    <path d="M6.2,0 L9.8,0 C11,0 12,1 12,2.2 L12,4 L4,4 L4,2.2 C4,1 5,0 6.2,0 L6.2,0 Z" id="Shape"></path>
                    <path d="M16,22 L16,22 C16,19.4 16,17 14.2,15.2 C13.2,14.2 12.6,12.8 12.4,11.4 L12,6 L4,6 L3.4,11.4 C3.4,12.8 2.8,14.2 1.6,15.2 C0,17 0,19.4 0,21.8 L0,36 C0,38.2 1.8,40 4,40 L12,40 C14.2,40 16,38.2 16,36 L16,34 L6,34 L6,22 L16,22 L16,22 Z" id="Shape"></path>
                </g>
            </g>
        </g>
    </g>
</svg>